<svg xmlns="http://www.w3.org/2000/svg" viewBox="0 0 20 20" width="160" height="160"><title>html-layers - ícone com fundo</title><rect width="20" height="20" rx="4.5" fill="#14283A"/><svg x="2" y="2" width="16" height="16" viewBox="0 0 16 16"><defs><mask id="dm0" maskUnits="userSpaceOnUse" x="-2" y="-2" width="20" height="20"><rect x="-2" y="-2" width="20" height="20" fill="#fff"/><rect x="2.5" y="3.5" width="12" height="9" rx="2.6" fill="#000"/><rect x="7.25" y="7.25" width="9.5" height="9.5" rx="3" fill="#000"/></mask><mask id="dm1" maskUnits="userSpaceOnUse" x="-2" y="-2" width="20" height="20"><rect x="-2" y="-2" width="20" height="20" fill="#fff"/><rect x="7.25" y="7.25" width="9.5" height="9.5" rx="3" fill="#000"/></mask><mask id="dm2" maskUnits="userSpaceOnUse" x="-2" y="-2" width="20" height="20"><rect x="-2" y="-2" width="20" height="20" fill="#fff"/><path d="M12.85 10.1 10.95 12l1.9 1.9" fill="none" stroke="#000" stroke-width="1.35" stroke-linecap="round" stroke-linejoin="round"/></mask></defs><rect x="0.75" y="1.25" width="10" height="7" rx="1.6" fill="#7B5BD6" mask="url(#dm0)"/><rect x="3.5" y="4.5" width="10" height="7" rx="1.6" fill="#F5C84C" mask="url(#dm1)"/><rect x="8.25" y="8.25" width="7.5" height="7.5" rx="2" fill="#0675B8" mask="url(#dm2)"/></svg></svg>
